<?xml version="1.0" encoding="UTF-8"?>
<svg width="50px" height="32px" viewBox="0 0 50 32" version="1.1" xmlns="http://www.w3.org/2000/svg" xmlns:xlink="http://www.w3.org/1999/xlink">
    <!-- Generator: Sketch 55.2 (78181) - https://sketchapp.com -->
    <title>boleta</title>
    <desc>Created with Sketch.</desc>
    <g id="Page-1" stroke="none" stroke-width="1" fill="none" fill-rule="evenodd">
        <g id="MODULOS" transform="translate(-1224.000000, -5164.000000)">
            <g id="boleta" transform="translate(1224.000000, 5164.000000)">
                <rect id="Rectangle" fill="#FFFFFF" x="2.84217094e-14" y="0" width="49.7777778" height="32" rx="2"></rect>
                <path d="M11.0738636,28 C10.6988636,28 10.3579545,28 10,28 L10,4 L11.0738636,4 L11.0738636,28 Z M12.1477273,27.9829545 C11.9602273,27.9829545 11.8068182,27.9829545 11.6022727,27.9829545 L11.6022727,4 L12.1477273,4 L12.1477273,27.9829545 Z M13.75,27.9829545 C13.5795455,27.9829545 13.4090909,27.9829545 13.2215909,27.9829545 L13.2215909,4 L13.75,4 L13.75,27.9829545 Z M16.4261364,27.9829545 C16.2556818,27.9829545 16.1022727,27.9829545 15.8977273,27.9829545 L15.8977273,4 L16.4261364,4 L16.4261364,27.9829545 Z M19.1022727,27.9829545 C18.7613636,27.9829545 18.4204545,27.9829545 18.0454545,27.9829545 L18.0454545,4 L19.1022727,4 L19.1022727,27.9829545 Z M21.25,27.9829545 C21.0795455,27.9829545 20.9090909,27.9829545 20.7215909,27.9829545 L20.7215909,4 L21.25,4 L21.25,27.9829545 Z M22.3238636,27.9829545 C22.1534091,27.9829545 21.9829545,27.9829545 21.7954545,27.9829545 L21.7954545,4 L22.3238636,4 L22.3238636,27.9829545 Z M23.3977273,27.9829545 C23.2272727,27.9829545 23.0568182,27.9829545 22.8693182,27.9829545 L22.8693182,4 L23.3977273,4 L23.3977273,27.9829545 Z M26.0738636,27.9829545 C25.7159091,27.9829545 25.3920455,27.9829545 25,27.9829545 L25,4 L26.0738636,4 L26.0738636,27.9829545 Z M28.75,27.9829545 C28.4090909,27.9829545 28.0681818,27.9829545 27.6761364,27.9829545 L27.6761364,4 L28.75,4 L28.75,27.9829545 Z M30.8977273,27.9829545 C30.5397727,27.9829545 30.1988636,27.9829545 29.8238636,27.9829545 L29.8238636,4 L30.8977273,4 L30.8977273,27.9829545 Z M33.0454545,27.9829545 C32.6875,27.9829545 32.3465909,27.9829545 31.9715909,27.9829545 L31.9715909,4 L33.0454545,4 L33.0454545,27.9829545 Z M34.6477273,27.9829545 C34.2897727,27.9829545 33.9659091,27.9829545 33.5738636,27.9829545 L33.5738636,4 L34.6477273,4 L34.6477273,27.9829545 Z M37.8693182,27.9829545 C37.3409091,27.9829545 36.8125,27.9829545 36.2670455,27.9829545 L36.2670455,4 L37.8693182,4 L37.8693182,27.9829545 Z M38.9431818,27.9829545 C38.7556818,27.9829545 38.6022727,27.9829545 38.3977273,27.9829545 L38.3977273,4 L38.9431818,4 L38.9431818,27.9829545 Z M40.5454545,28 C40.2045455,28 39.8636364,28 39.4715909,28 C39.4715909,19.9886364 39.4715909,11.9943182 39.4715909,4 C39.8295455,4 40.1875,4 40.5454545,4 C40.5454545,11.9943182 40.5454545,20.0056818 40.5454545,28 Z" id="" fill="#4C4C4C" fill-rule="nonzero"></path>
            </g>
        </g>
    </g>
</svg>