<svg width="520" height="520" viewBox="0 0 520 520" fill="none" xmlns="http://www.w3.org/2000/svg">
<rect x="15" y="15" width="490" height="490" stroke="url(#paint0_linear_1024_60)" stroke-width="10"/>
<path d="M112 60H117V460H112V60Z" fill="url(#paint1_linear_1024_60)"/>
<path d="M306 60H311V460H306V60Z" fill="url(#paint2_linear_1024_60)"/>
<path d="M209 60H214V460H209V60Z" fill="url(#paint3_linear_1024_60)"/>
<path d="M403 60H408V460H403V60Z" fill="url(#paint4_linear_1024_60)"/>
<rect x="15" y="15" width="490" height="490" stroke="url(#paint5_linear_1024_60)" stroke-width="10"/>
<path d="M112 60H117V460H112V60Z" fill="url(#paint6_linear_1024_60)"/>
<path d="M306 60H311V460H306V60Z" fill="url(#paint7_linear_1024_60)"/>
<path d="M209 60H214V460H209V60Z" fill="url(#paint8_linear_1024_60)"/>
<path d="M403 60H408V460H403V60Z" fill="url(#paint9_linear_1024_60)"/>
<defs>
<linearGradient id="paint0_linear_1024_60" x1="260" y1="10" x2="260" y2="510" gradientUnits="userSpaceOnUse">
<stop offset="0.0001" stop-color="#9A4A4A"/>
</linearGradient>
<linearGradient id="paint1_linear_1024_60" x1="114.5" y1="60" x2="114.5" y2="460" gradientUnits="userSpaceOnUse">
<stop offset="0.0001" stop-color="#9A4A4A"/>
</linearGradient>
<linearGradient id="paint2_linear_1024_60" x1="308.5" y1="60" x2="308.5" y2="460" gradientUnits="userSpaceOnUse">
<stop offset="0.0001" stop-color="#9A4A4A"/>
</linearGradient>
<linearGradient id="paint3_linear_1024_60" x1="211.5" y1="60" x2="211.5" y2="460" gradientUnits="userSpaceOnUse">
<stop offset="0.0001" stop-color="#9A4A4A"/>
</linearGradient>
<linearGradient id="paint4_linear_1024_60" x1="405.5" y1="60" x2="405.5" y2="460" gradientUnits="userSpaceOnUse">
<stop offset="0.0001" stop-color="#9A4A4A"/>
</linearGradient>
<linearGradient id="paint5_linear_1024_60" x1="260" y1="10" x2="260" y2="510" gradientUnits="userSpaceOnUse">
<stop offset="0.0001" stop-color="#9A4A4A"/>
</linearGradient>
<linearGradient id="paint6_linear_1024_60" x1="114.5" y1="60" x2="114.5" y2="460" gradientUnits="userSpaceOnUse">
<stop offset="0.0001" stop-color="#9A4A4A"/>
</linearGradient>
<linearGradient id="paint7_linear_1024_60" x1="308.5" y1="60" x2="308.5" y2="460" gradientUnits="userSpaceOnUse">
<stop offset="0.0001" stop-color="#9A4A4A"/>
</linearGradient>
<linearGradient id="paint8_linear_1024_60" x1="211.5" y1="60" x2="211.5" y2="460" gradientUnits="userSpaceOnUse">
<stop offset="0.0001" stop-color="#9A4A4A"/>
</linearGradient>
<linearGradient id="paint9_linear_1024_60" x1="405.5" y1="60" x2="405.5" y2="460" gradientUnits="userSpaceOnUse">
<stop offset="0.0001" stop-color="#9A4A4A"/>
</linearGradient>
</defs>
</svg>
